{"title":"Budgie with Craig Goldy 2009 07 24 - Dolina Charlotty, Slupsk,","uid":12993889,"size":4289927275,"categoryP":"video","categoryS":"music_videos","magnet":"?xt=urn:btih:69011e2ea70fda7741a3910f2edde3aea2e962f1&amp;dn=Budgie+with+Craig+Goldy+2009+07+24+-+Dolina+Charlotty%2C+Slupsk%2C&amp;tr=udp%3A%2F%2Ftracker.leechers-paradise.org%3A6969&amp;tr=udp%3A%2F%2Fzer0day.ch%3A1337&amp;tr=udp%3A%2F%2Fopen.demonii.com%3A1337&amp;tr=udp%3A%2F%2Ftracker.coppersurfer.tk%3A6969&amp;tr=udp%3A%2F%2Fexodus.desync.com%3A6969","seeders":0,"leechers":1,"uploader":"Flyfisher61","files":14,"time":1450144743,"description":"very nice video\r\nscreens included in the torrent\r\n\r\nBand: Budgie\r\nDate: Jul 24, 2009\r\nCity: Slupsk, Poland\r\nVenue: Dolina Charlotty\r\nType: audience shot\r\nVideo: single-cam\r\nLength: 90 min\r\nDiscs: 1DVD\r\nMenu: no\r\nCahpters: no\r\n\r\nThanks to Yuri and Linda\r\n\r\n\r\nSetlist:\r\n01) Panzer Division Destroyed\r\n02) Guts\r\n03) Dead Men Don`t Talk\r\n04) Melt the Ice Away\r\n05) Justice\r\n06) I Turned to Stone\r\n07) Falling\r\n08)\tParents\r\n09) In for the Kill\r\n10) Crash Course in Brain Surgery\r\n11) Hot as a Docker`s Armpit\r\n12) In for the Kill\r\n13) Nude Disintegrating Woman\r\n14) Zoom Club\r\n15) Napoleon Bona Part I &amp; II\r\n16) Breadfan\r\n17) Guitar Solo\r\n18)\tWhiskey River\r\n19) Breadfan\r\n\r\ninfo vob1\r\n\r\nGeneral\r\nComplete name                            : C:bdgravarBudgie 2009 07 24 - Dolina Charlotty, Slupsk, PolandVIDEO_TSVTS_01_1.VOB\r\nFormat                                   : MPEG-PS\r\nFile size                                : 1 024 MiB\r\nDuration                                 : 22mn 32s\r\nOverall bit rate mode                    : Variable\r\nOverall bit rate                         : 6 353 Kbps\r\n\r\nVideo\r\nID                                       : 224 (0xE0)\r\nFormat                                   : MPEG Video\r\nFormat version                           : Version 2\r\nFormat profile                           :   \r\nFormat settings, BVOP                    : Yes\r\nFormat settings, Matrix                  : Custom\r\nFormat settings, GOP                     : Variable\r\nFormat settings, picture structure       : Frame\r\nDuration                                 : 22mn 32s\r\nBit rate mode                            : Variable\r\nBit rate                                 : 4 691 Kbps\r\nMaximum bit rate                         : 8 494 Kbps\r\nWidth                                    : 720 pixels\r\nHeight                                   : 576 pixels\r\nDisplay aspect ratio                     : 4:3\r\nFrame rate                               : 25.000 fps\r\nStandard                                 : PAL\r\nColor space                              : YUV\r\nChroma subsampling                       : 4:2:0\r\nBit depth                                : 8 bits\r\nScan type                                : Interlaced\r\nScan order                               : Top Field First\r\nCompression mode                         : Lossy\r\nBits/(Pixel*Frame)                       : 0.452\r\nTime code of first frame                 : 00:00:00:00\r\nTime code source                         : Group of pictures header\r\nGOP, Open/Closed                         : Open\r\nGOP, Open/Closed of first frame          : Closed\r\nStream size                              : 756 MiB (74%)\r\nColor primaries                          : BT.601 NTSC\r\nTransfer characteristics                 : BT.601\r\nMatrix coefficients                      : BT.601\r\n\r\nAudio\r\nID                                       : 189 (0xBD)-160 (0xA0)\r\nFormat                                   : PCM\r\nFormat settings, Endianness              : Big\r\nFormat settings, Sign                    : Signed\r\nMuxing mode                              : DVD-Video\r\nDuration                                 : 22mn 31s\r\nBit rate mode                            : Constant\r\nBit rate                                 : 1 536 Kbps\r\nChannel(s)                               : 2 channels\r\nSampling rate                            : 48.0 KHz\r\nBit depth                                : 16 bits\r\nStream size                              : 247 MiB (24%)","torrent":{"xt":"urn:btih:69011e2ea70fda7741a3910f2edde3aea2e962f1","amp;dn":"Budgie+with+Craig+Goldy+2009+07+24+-+Dolina+Charlotty%2C+Slupsk%2C","amp;tr":["udp%3A%2F%2Ftracker.leechers-paradise.org%3A6969","udp%3A%2F%2Fzer0day.ch%3A1337","udp%3A%2F%2Fopen.demonii.com%3A1337","udp%3A%2F%2Ftracker.coppersurfer.tk%3A6969","udp%3A%2F%2Fexodus.desync.com%3A6969"],"infoHash":"69011e2ea70fda7741a3910f2edde3aea2e962f1","infoHashBuffer":{"type":"Buffer","data":[105,1,30,46,167,15,218,119,65,163,145,15,46,221,227,174,162,233,98,241]},"announce":[],"urlList":[]}}